<svg id="Grupo_43" data-name="Grupo 43" xmlns="http://www.w3.org/2000/svg" width="173.062" height="40.178" viewBox="0 0 173.062 40.178">
  <g id="Grupo_8" data-name="Grupo 8" transform="translate(0 0)">
    <g id="Grupo_1" data-name="Grupo 1" transform="translate(67.573)">
      <path id="Trazado_1" data-name="Trazado 1" d="M458.211,55.02a10.553,10.553,0,0,0-2.252-1.433,11.68,11.68,0,0,0-9.269-.059,12.229,12.229,0,0,0-3.951,2.649,12.426,12.426,0,0,0-2.671,13.557,11.852,11.852,0,0,0,2.671,3.948,12.205,12.205,0,0,0,3.951,2.65,12.33,12.33,0,0,0,4.78.933,9.508,9.508,0,0,0,4.45-1.1,12.17,12.17,0,0,0,2.291-1.557v2.426h5.662V53.055h-5.662Zm-1.987,5.132a6.606,6.606,0,0,1,1.422,2.165,6.943,6.943,0,0,1,.518,2.635,6.775,6.775,0,0,1-.516,2.606,6.489,6.489,0,0,1-3.573,3.573,6.924,6.924,0,0,1-5.24,0,6.431,6.431,0,0,1-3.59-3.569,6.729,6.729,0,0,1-.517-2.607,6.9,6.9,0,0,1,.519-2.634,6.379,6.379,0,0,1,3.588-3.588,6.915,6.915,0,0,1,2.634-.518,6.74,6.74,0,0,1,2.606.517A6.649,6.649,0,0,1,456.224,60.152Z" transform="translate(-412.127 -44.955)" fill="#fff"/>
      <path id="Trazado_2" data-name="Trazado 2" d="M507.821,52.42V67.126a4.185,4.185,0,0,1-1.3,3.1,4.492,4.492,0,0,1-1.417.943,4.043,4.043,0,0,1-4.686-.943,4.192,4.192,0,0,1-1.3-3.1V52.42h-5.572V67.126a9.812,9.812,0,0,0,.774,3.863,10.486,10.486,0,0,0,2.119,3.209,10.075,10.075,0,0,0,3.208,2.165,9.718,9.718,0,0,0,3.818.773,7.4,7.4,0,0,0,3.1-.714,9.141,9.141,0,0,0,1.247-.688v1.079h5.525V52.42Z" transform="translate(-437.268 -44.873)" fill="#fff"/>
      <path id="Trazado_3" data-name="Trazado 3" d="M401.467,45.773a12.424,12.424,0,0,0-6.881,2.071V38.4H389.04s-.064,19.439-.064,19.867a12.491,12.491,0,1,0,12.491-12.491Zm0,19.265a6.774,6.774,0,1,1,6.774-6.774A6.774,6.774,0,0,1,401.467,65.038Z" transform="translate(-388.976 -38.397)" fill="#fff"/>
      <path id="Trazado_4" data-name="Trazado 4" d="M563.54,64.741a12.491,12.491,0,0,0-24.982,0,12.624,12.624,0,0,0,.064,1.266v18.6h5.546V75.161a12.486,12.486,0,0,0,19.372-10.42Zm-5.717,0a6.774,6.774,0,1,1-6.774-6.774A6.774,6.774,0,0,1,557.823,64.741Z" transform="translate(-458.05 -44.794)" fill="#fff"/>
    </g>
    <g id="Grupo_7" data-name="Grupo 7" transform="translate(0)">
      <path id="Trazado_5" data-name="Trazado 5" d="M316.568,67.043a1.286,1.286,0,1,0-1.286,1.286A1.286,1.286,0,0,0,316.568,67.043Z" transform="translate(-286.778 -51.031)" fill="#fff"/>
      <path id="Trazado_6" data-name="Trazado 6" d="M307.179,75.723c-1.111,0-2.011.445-2.011.992a2.059,2.059,0,0,0,1.9,1.681,2.353,2.353,0,0,0,2.122-1.681C309.191,76.168,308.29,75.723,307.179,75.723Z" transform="translate(-282.702 -55.634)" fill="#fff"/>
      <path id="Trazado_7" data-name="Trazado 7" d="M299.707,67.043a1.286,1.286,0,1,0,1.286-1.286A1.286,1.286,0,0,0,299.707,67.043Z" transform="translate(-280.18 -51.031)" fill="#fff"/>
      <path id="Trazado_8" data-name="Trazado 8" d="M278.558,54.845a2.809,2.809,0,0,1-.895-1.836,2.353,2.353,0,0,1,1.741-2.267c.025-.031,1.354-.091,1.99-.127a9.234,9.234,0,0,0,.984-.118,5.783,5.783,0,0,1,4.538-2.249s.175-1.009,0-1.279c-.474-.727-1.062-.706-1.8-1.344a11.6,11.6,0,0,1-2.7-2.89A8.723,8.723,0,0,0,274.87,38.4a9.881,9.881,0,0,0-3.856.764,6.23,6.23,0,0,0-4.281,4.7c-.057.214-.1.428-.146.643a12.093,12.093,0,0,0-.721,5.019c.036.132.059.273.09.409,0,.048,0,.1,0,.143l.037,0a11.371,11.371,0,0,1,.157,3.763,11.961,11.961,0,0,1-.513,2.285q-.338.749-.663,1.572c-.55,1.39-1.067,2.931-1.541,4.591a26.239,26.239,0,0,0,17.134,16.285l-.009-8.261.213-5.966C280.925,63.1,280.674,57.233,278.558,54.845Z" transform="translate(-263.427 -38.397)" fill="#fff"/>
      <path id="Trazado_9" data-name="Trazado 9" d="M333.359,57.7q-.325-.821-.663-1.572a11.924,11.924,0,0,1-.513-2.285,11.371,11.371,0,0,1,.156-3.763l.037,0c0-.047,0-.095,0-.143.031-.136.054-.277.089-.409a12.081,12.081,0,0,0-.72-5.019c-.05-.214-.089-.429-.146-.643a6.23,6.23,0,0,0-4.282-4.7,9.876,9.876,0,0,0-3.855-.764,8.723,8.723,0,0,0-7.551,4.338,11.6,11.6,0,0,1-2.7,2.89c-.733.638-1.322.617-1.8,1.344-.177.271-.007,1.279,0,1.279a5.784,5.784,0,0,1,4.538,2.249,9.238,9.238,0,0,0,.984.118c.637.036,1.966.1,1.991.127a2.353,2.353,0,0,1,1.741,2.267,2.807,2.807,0,0,1-.9,1.836c-2.115,2.388-2.367,8.255-2.207,9.5l.213,5.966-.009,8.261A26.24,26.24,0,0,0,334.9,62.29C334.425,60.629,333.908,59.088,333.359,57.7Z" transform="translate(-285.548 -38.397)" fill="#fff"/>
      <g id="Grupo_6" data-name="Grupo 6" transform="translate(19.313 27.791)">
        <g id="Grupo_3" data-name="Grupo 3" transform="translate(7.319 0)">
          <g id="Grupo_2" data-name="Grupo 2">
            <path id="Trazado_10" data-name="Trazado 10" d="M316.315,90.869a1.84,1.84,0,0,0-1.327-.834,1.322,1.322,0,0,0-.752.3,1.294,1.294,0,0,0-.218.233h0v0l0,.006A9.013,9.013,0,0,0,313.2,92c-.5,1.323-.206,5.659-.206,5.659a2.442,2.442,0,0,0,1.6-1.062c.552-.73.491-3.627.491-3.627l.015-.01-.006,0Z" transform="translate(-312.908 -90.033)" fill="#fff"/>
          </g>
        </g>
        <g id="Grupo_5" data-name="Grupo 5" transform="translate(0 0)">
          <g id="Grupo_4" data-name="Grupo 4">
            <path id="Trazado_11" data-name="Trazado 11" d="M299.31,90.869a1.842,1.842,0,0,1,1.327-.834,1.322,1.322,0,0,1,.752.3,1.3,1.3,0,0,1,.218.233h0l.005.008A9.01,9.01,0,0,1,302.424,92c.5,1.323.206,5.659.206,5.659a2.443,2.443,0,0,1-1.6-1.062c-.552-.73-.49-3.627-.49-3.627l-.015-.01.006,0Z" transform="translate(-299.31 -90.033)" fill="#fff"/>
          </g>
        </g>
      </g>
    </g>
  </g>
</svg>
