<svg id="Grupo_44" data-name="Grupo 44" xmlns="http://www.w3.org/2000/svg" width="572.938" height="133.013" viewBox="0 0 572.938 133.013">
  <g id="Grupo_1" data-name="Grupo 1" transform="translate(223.705 0)">
    <path id="Trazado_1" data-name="Trazado 1" d="M502.342,60.614a34.938,34.938,0,0,0-7.457-4.743c-9.6-4.508-21.186-4.153-30.685-.2a40.487,40.487,0,0,0-13.079,8.77,41.138,41.138,0,0,0-8.843,44.882,39.238,39.238,0,0,0,8.843,13.071,40.407,40.407,0,0,0,13.079,8.772,40.819,40.819,0,0,0,15.824,3.09,31.478,31.478,0,0,0,14.732-3.64,40.3,40.3,0,0,0,7.585-5.155V133.5h18.745V54.109H502.342Zm-6.577,16.991a21.866,21.866,0,0,1,4.708,7.168,22.983,22.983,0,0,1,1.716,8.724,22.431,22.431,0,0,1-1.707,8.628,21.481,21.481,0,0,1-11.83,11.828,22.922,22.922,0,0,1-17.348-.007,21.29,21.29,0,0,1-11.885-11.817,22.28,22.28,0,0,1-1.712-8.631,22.846,22.846,0,0,1,1.718-8.72A21.118,21.118,0,0,1,471.3,72.9a22.892,22.892,0,0,1,8.72-1.716,22.314,22.314,0,0,1,8.628,1.711A22.01,22.01,0,0,1,495.766,77.606Z" transform="translate(-349.78 -27.294)" fill="#039be6"/>
    <path id="Trazado_2" data-name="Trazado 2" d="M540.785,52.42V101.1a13.855,13.855,0,0,1-4.291,10.253,14.868,14.868,0,0,1-4.692,3.124c-5.839,2.5-11.3,1.094-15.514-3.122A13.879,13.879,0,0,1,512,101.1V52.42H493.554V101.1a32.486,32.486,0,0,0,2.562,12.79,34.714,34.714,0,0,0,7.015,10.623,33.353,33.353,0,0,0,10.62,7.168,32.171,32.171,0,0,0,12.64,2.56,24.507,24.507,0,0,0,10.265-2.363,30.27,30.27,0,0,0,4.128-2.277v3.573h18.292V52.42Z" transform="translate(-307.215 -27.434)" fill="#039be6"/>
    <path id="Trazado_3" data-name="Trazado 3" d="M430.328,62.815a41.13,41.13,0,0,0-22.779,6.856V38.4H389.188s-.212,64.356-.212,65.77a41.352,41.352,0,1,0,41.352-41.352Zm0,63.778a22.426,22.426,0,1,1,22.426-22.426A22.426,22.426,0,0,1,430.328,126.593Z" transform="translate(-388.976 -38.397)" fill="#fd6b08"/>
    <path id="Trazado_4" data-name="Trazado 4" d="M621.263,93.6a41.352,41.352,0,0,0-82.7,0,41.805,41.805,0,0,0,.212,4.193v61.58h18.362V128.1a41.335,41.335,0,0,0,64.131-34.5Zm-18.927,0A22.426,22.426,0,1,1,579.91,71.176,22.426,22.426,0,0,1,602.336,93.6Z" transform="translate(-272.03 -27.566)" fill="#fd6b08"/>
  </g>
  <g id="Grupo_7" data-name="Grupo 7" transform="translate(0 0)">
    <path id="Trazado_5" data-name="Trazado 5" d="M322.512,70.014a4.259,4.259,0,1,0-4.258,4.259A4.258,4.258,0,0,0,322.512,70.014Z" transform="translate(-223.892 -17.007)" fill="#fd6b08"/>
    <path id="Trazado_6" data-name="Trazado 6" d="M311.827,75.723c-3.678,0-6.659,1.472-6.659,3.284s2.616,5.565,6.293,5.565,7.024-3.751,7.024-5.565S315.5,75.723,311.827,75.723Z" transform="translate(-230.793 -9.215)" fill="#fd6b08"/>
    <path id="Trazado_7" data-name="Trazado 7" d="M299.707,70.014a4.258,4.258,0,1,0,4.259-4.257A4.258,4.258,0,0,0,299.707,70.014Z" transform="translate(-235.063 -17.007)" fill="#fd6b08"/>
    <path id="Trazado_8" data-name="Trazado 8" d="M313.519,92.851c-1.52-1.716-2.961-3.608-2.961-6.08a7.79,7.79,0,0,1,5.764-7.5c.082-.1,4.483-.3,6.589-.421a30.568,30.568,0,0,0,3.259-.39c4.314-4.533,8.111-7.375,15.024-7.444.016,0,.579-3.339-.007-4.235-1.568-2.407-3.517-2.338-5.944-4.451-2.209-1.923-6.03-4.749-8.938-9.567a28.879,28.879,0,0,0-25-14.361,32.71,32.71,0,0,0-12.765,2.528c-7.051,1.962-12.056,7.6-14.173,15.559-.189.707-.319,1.418-.483,2.127A40.036,40.036,0,0,0,271.5,75.229c.119.437.194.905.3,1.354,0,.159-.016.315-.016.472l.121.016a37.644,37.644,0,0,1,.519,12.458,39.6,39.6,0,0,1-1.7,7.564q-1.12,2.48-2.2,5.2c-1.819,4.6-3.531,9.7-5.1,15.2a86.868,86.868,0,0,0,56.724,53.914l-.029-27.347.7-19.751C321.356,120.181,320.524,100.755,313.519,92.851Z" transform="translate(-263.427 -38.397)" fill="#fd6b08"/>
    <path id="Trazado_9" data-name="Trazado 9" d="M384.255,102.3q-1.074-2.718-2.2-5.2a39.476,39.476,0,0,1-1.7-7.564,37.645,37.645,0,0,1,.517-12.458l.123-.016c0-.157-.014-.314-.016-.472.1-.449.178-.918.3-1.354A39.991,39.991,0,0,0,378.9,58.612c-.166-.709-.3-1.42-.483-2.127-2.117-7.959-7.122-13.6-14.174-15.559A32.694,32.694,0,0,0,351.477,38.4a28.879,28.879,0,0,0-25,14.361c-2.908,4.818-6.728,7.644-8.938,9.567-2.427,2.113-4.376,2.044-5.946,4.451-.584.9-.021,4.235-.005,4.235,6.913.069,10.711,2.911,15.024,7.444a30.59,30.59,0,0,0,3.257.39c2.108.118,6.509.319,6.591.421a7.79,7.79,0,0,1,5.764,7.5c0,2.471-1.441,4.364-2.963,6.08-7,7.9-7.835,27.329-7.305,31.46l.7,19.751-.028,27.347A86.872,86.872,0,0,0,389.358,117.5C387.785,112,386.073,106.9,384.255,102.3Z" transform="translate(-225.975 -38.397)" fill="#fd6b08"/>
    <g id="Grupo_6" data-name="Grupo 6" transform="translate(63.937 92.005)">
      <g id="Grupo_3" data-name="Grupo 3" transform="translate(24.229 0)">
        <g id="Grupo_2" data-name="Grupo 2">
          <path id="Trazado_10" data-name="Trazado 10" d="M324.187,92.8c-.032-.31-2.315-2.911-4.392-2.762a4.377,4.377,0,0,0-2.491,1.009,4.279,4.279,0,0,0-.722.77v0l0,.007-.016.021a29.843,29.843,0,0,0-2.683,4.709c-1.668,4.381-.681,18.736-.681,18.736s2.79-.2,5.3-3.515c1.828-2.416,1.625-12.008,1.625-12.008l.048-.034-.021-.016Z" transform="translate(-312.908 -90.033)" fill="#fd6b08"/>
        </g>
      </g>
      <g id="Grupo_5" data-name="Grupo 5" transform="translate(0 0)">
        <g id="Grupo_4" data-name="Grupo 4">
          <path id="Trazado_11" data-name="Trazado 11" d="M299.31,92.8c.032-.31,2.316-2.911,4.394-2.762a4.377,4.377,0,0,1,2.491,1.009,4.284,4.284,0,0,1,.722.77l0,0,0,0,.018.025a29.836,29.836,0,0,1,2.683,4.709c1.666,4.381.681,18.736.681,18.736s-2.792-.2-5.3-3.515c-1.826-2.416-1.623-12.008-1.623-12.008l-.048-.034.021-.016Z" transform="translate(-299.31 -90.033)" fill="#fd6b08"/>
        </g>
      </g>
    </g>
  </g>
</svg>
