<svg xmlns="http://www.w3.org/2000/svg" width="211.062" height="49" viewBox="0 0 211.062 49">
  <g id="Grupo_9" data-name="Grupo 9" transform="translate(-935 -491)">
    <g id="Grupo_8" data-name="Grupo 8" transform="translate(935 491)">
      <g id="Grupo_1" data-name="Grupo 1" transform="translate(82.41 0)">
        <path id="Trazado_1" data-name="Trazado 1" d="M462.4,55.551a12.87,12.87,0,0,0-2.747-1.747,14.244,14.244,0,0,0-11.3-.072,14.915,14.915,0,0,0-4.818,3.231A15.155,15.155,0,0,0,440.278,73.5a14.454,14.454,0,0,0,3.258,4.815,14.885,14.885,0,0,0,4.818,3.231,15.037,15.037,0,0,0,5.829,1.138,11.6,11.6,0,0,0,5.427-1.341,14.844,14.844,0,0,0,2.794-1.9V82.4h6.905V53.155H462.4Zm-2.423,6.259a8.055,8.055,0,0,1,1.734,2.641,8.467,8.467,0,0,1,.632,3.214,8.263,8.263,0,0,1-.629,3.178,7.913,7.913,0,0,1-4.358,4.357,8.444,8.444,0,0,1-6.391,0,7.843,7.843,0,0,1-4.378-4.353,8.208,8.208,0,0,1-.631-3.18,8.416,8.416,0,0,1,.633-3.212,7.78,7.78,0,0,1,4.376-4.376,8.433,8.433,0,0,1,3.212-.632,8.22,8.22,0,0,1,3.178.63A8.108,8.108,0,0,1,459.982,61.811Z" transform="translate(-406.203 -43.277)" fill="#039be6"/>
        <path id="Trazado_2" data-name="Trazado 2" d="M510.953,52.42V70.355a5.1,5.1,0,0,1-1.581,3.777,5.477,5.477,0,0,1-1.728,1.151,4.931,4.931,0,0,1-5.715-1.15,5.113,5.113,0,0,1-1.58-3.778V52.42h-6.8V70.355a11.967,11.967,0,0,0,.944,4.712,12.788,12.788,0,0,0,2.584,3.913,12.287,12.287,0,0,0,3.912,2.641,11.852,11.852,0,0,0,4.656.943,9.028,9.028,0,0,0,3.782-.87,11.149,11.149,0,0,0,1.521-.839v1.316h6.739V52.42Z" transform="translate(-424.909 -43.215)" fill="#039be6"/>
        <path id="Trazado_3" data-name="Trazado 3" d="M404.21,47.392a15.152,15.152,0,0,0-8.391,2.526V38.4h-6.764s-.078,23.708-.078,24.229A15.234,15.234,0,1,0,404.21,47.392Zm0,23.5a8.261,8.261,0,1,1,8.261-8.261A8.261,8.261,0,0,1,404.21,70.887Z" transform="translate(-388.976 -38.397)" fill="#fd6b08"/>
        <path id="Trazado_4" data-name="Trazado 4" d="M569.025,67.484a15.234,15.234,0,0,0-30.467,0,15.4,15.4,0,0,0,.078,1.545V91.713H545.4V80.192a15.227,15.227,0,0,0,23.625-12.708Zm-6.972,0a8.261,8.261,0,1,1-8.261-8.261A8.261,8.261,0,0,1,562.053,67.484Z" transform="translate(-440.373 -43.157)" fill="#fd6b08"/>
      </g>
      <g id="Grupo_7" data-name="Grupo 7" transform="translate(0 0)">
        <path id="Trazado_5" data-name="Trazado 5" d="M317.133,67.325a1.569,1.569,0,1,0-1.569,1.569A1.569,1.569,0,0,0,317.133,67.325Z" transform="translate(-280.802 -47.798)" fill="#fd6b08"/>
        <path id="Trazado_6" data-name="Trazado 6" d="M307.621,75.723c-1.355,0-2.453.542-2.453,1.21a2.511,2.511,0,0,0,2.318,2.05,2.87,2.87,0,0,0,2.587-2.05C310.074,76.265,308.975,75.723,307.621,75.723Z" transform="translate(-277.769 -51.222)" fill="#fd6b08"/>
        <path id="Trazado_7" data-name="Trazado 7" d="M299.707,67.325a1.568,1.568,0,1,0,1.569-1.568A1.569,1.569,0,0,0,299.707,67.325Z" transform="translate(-275.893 -47.798)" fill="#fd6b08"/>
        <path id="Trazado_8" data-name="Trazado 8" d="M281.88,58.457a3.426,3.426,0,0,1-1.091-2.24,2.87,2.87,0,0,1,2.123-2.765c.03-.037,1.651-.112,2.427-.155a11.259,11.259,0,0,0,1.2-.144c1.589-1.67,2.988-2.717,5.535-2.742.006,0,.213-1.23,0-1.56-.578-.887-1.3-.861-2.19-1.64a14.143,14.143,0,0,1-3.292-3.524,10.639,10.639,0,0,0-9.209-5.291,12.05,12.05,0,0,0-4.7.931,7.6,7.6,0,0,0-5.221,5.732c-.07.261-.117.522-.178.784a14.748,14.748,0,0,0-.879,6.122c.044.161.072.333.11.5,0,.058-.006.116-.006.174l.045.006a13.868,13.868,0,0,1,.191,4.59,14.59,14.59,0,0,1-.626,2.786q-.413.914-.809,1.917c-.67,1.695-1.3,3.574-1.88,5.6a32,32,0,0,0,20.9,19.861l-.01-10.074.259-7.276C284.767,68.525,284.461,61.369,281.88,58.457Z" transform="translate(-263.427 -38.397)" fill="#fd6b08"/>
        <path id="Trazado_9" data-name="Trazado 9" d="M338.2,61.937q-.4-1-.809-1.917a14.541,14.541,0,0,1-.626-2.786,13.867,13.867,0,0,1,.19-4.59l.045-.006c0-.058-.005-.116-.006-.174.038-.165.066-.338.109-.5a14.733,14.733,0,0,0-.878-6.122c-.061-.261-.109-.523-.178-.784a7.6,7.6,0,0,0-5.222-5.732,12.044,12.044,0,0,0-4.7-.931,10.639,10.639,0,0,0-9.209,5.291,14.143,14.143,0,0,1-3.293,3.524c-.894.778-1.612.753-2.19,1.64-.215.33-.008,1.56,0,1.56,2.547.026,3.946,1.073,5.535,2.742a11.267,11.267,0,0,0,1.2.144c.777.043,2.4.117,2.428.155a2.87,2.87,0,0,1,2.123,2.765,3.424,3.424,0,0,1-1.092,2.24c-2.58,2.912-2.886,10.068-2.691,11.589l.259,7.276-.01,10.074a32,32,0,0,0,20.9-19.861C339.5,65.511,338.865,63.632,338.2,61.937Z" transform="translate(-279.887 -38.397)" fill="#fd6b08"/>
        <g id="Grupo_6" data-name="Grupo 6" transform="translate(23.553 33.893)">
          <g id="Grupo_3" data-name="Grupo 3" transform="translate(8.926 0)">
            <g id="Grupo_2" data-name="Grupo 2">
              <path id="Trazado_10" data-name="Trazado 10" d="M317.063,91.052a2.245,2.245,0,0,0-1.618-1.017,1.612,1.612,0,0,0-.918.372,1.577,1.577,0,0,0-.266.284h0v0l-.006.008a10.992,10.992,0,0,0-.989,1.735c-.614,1.614-.251,6.9-.251,6.9a2.978,2.978,0,0,0,1.951-1.3c.673-.89.6-4.423.6-4.423l.018-.012-.008-.006Z" transform="translate(-312.908 -90.033)" fill="#fd6b08"/>
            </g>
          </g>
          <g id="Grupo_5" data-name="Grupo 5" transform="translate(0 0)">
            <g id="Grupo_4" data-name="Grupo 4">
              <path id="Trazado_11" data-name="Trazado 11" d="M299.31,91.052a2.246,2.246,0,0,1,1.619-1.017,1.612,1.612,0,0,1,.918.372,1.578,1.578,0,0,1,.266.284h0l.007.009a10.992,10.992,0,0,1,.989,1.735c.614,1.614.251,6.9.251,6.9a2.979,2.979,0,0,1-1.952-1.3c-.673-.89-.6-4.423-.6-4.423l-.018-.012.008-.006Z" transform="translate(-299.31 -90.033)" fill="#fd6b08"/>
            </g>
          </g>
        </g>
      </g>
    </g>
  </g>
</svg>
