<svg xmlns="http://www.w3.org/2000/svg" viewBox="0 0 250.7 229.46"><defs><style>.cls-1{fill:#231f20;}</style></defs><title>24_7Icon</title><g id="Layer_2" data-name="Layer 2"><g id="Layer_1-2" data-name="Layer 1"><path class="cls-1" d="M250.7,131.85H216.59a6.5,6.5,0,0,1,0-13h20.92a112.35,112.35,0,0,0-224.32,0H34.11a6.5,6.5,0,0,1,0,13H0v-6.5a125.35,125.35,0,0,1,250.7,0Z"/><path class="cls-1" d="M125.35,40.73a6.5,6.5,0,0,1-6.5-6.5V6.5a6.5,6.5,0,0,1,13,0V34.23A6.5,6.5,0,0,1,125.35,40.73Z"/><path class="cls-1" d="M125.49,146.82a6.48,6.48,0,0,1-6.5-6.5V56.77a6.5,6.5,0,0,1,13,0v67.86l19-19a6.5,6.5,0,0,1,9.19,9.19l-30.14,30.14A6.49,6.49,0,0,1,125.49,146.82Z"/><path class="cls-1" d="M6.06,211.69q9.72-8.1,15.49-13.52a62.5,62.5,0,0,0,9.62-11.29A21,21,0,0,0,35,175.33q0-5.16-2.43-8.1t-7.49-2.94a9.44,9.44,0,0,0-7.8,3.39q-2.73,3.4-2.84,9.27H.69q.41-12.15,7.24-18.43t17.37-6.28q11.55,0,17.72,6.13t6.18,16.15A29.23,29.23,0,0,1,45,189.61a60,60,0,0,1-9.73,12.51q-5.46,5.31-14.28,12.81H50.82v11.74H.79V216.14Z"/><path class="cls-1" d="M59.12,213.31V202.17l33.12-47.4h16.5V201h8.92v12.36h-8.92v14.38H94.57V213.31ZM95.48,170,74.72,201H95.48Z"/><path class="cls-1" d="M183.14,152.43l-31.55,77H138.81l31.62-77Z"/><path class="cls-1" d="M250.52,164.6l-26.94,63.09H209.2l27.14-61.47H201.71V154.06h48.81Z"/></g></g></svg>