<svg xmlns="http://www.w3.org/2000/svg" width="288.522" height="109.065" viewBox="0 0 288.522 109.065">
  <g id="logo2" transform="translate(-21.32 -25.325)">
    <path id="Trazado_1" data-name="Trazado 1" d="M102.37,131.1c-2.13,0-2.13-1.84-2.13-2.8v-6.69a2.5,2.5,0,0,1,.65-1.92,2.286,2.286,0,0,1,1.47-.56c1.92,0,1.96,1.92,1.99,2.79h3.86c-.05-1.42-.24-3.58-1.82-4.82a6.379,6.379,0,0,0-3.86-1.17c-4.1,0-6.26,2.28-6.26,6.3v5.3c0,3.6.93,4.6,1.66,5.3a6.04,6.04,0,0,0,4.55,1.56,6.556,6.556,0,0,0,3.84-1.18,4.87,4.87,0,0,0,1.85-3.14,11.555,11.555,0,0,0,.17-2.16h-3.89c-.02,1.9-.5,3.19-2.08,3.19"/>
    <path id="Trazado_2" data-name="Trazado 2" d="M116.58,116.31l-4.96,17.6h3.77l.91-3.5h5.39l.89,3.5h3.76l-5.08-17.6h-4.68Zm.39,11.1,1.92-7.96h.1l1.94,7.96Z"/>
    <path id="Trazado_3" data-name="Trazado 3" d="M141.76,119.52v-3.21h-11.7v17.6h3.88v-7.34h5.2v-3.26h-5.2v-3.79Z"/>
    <path id="Trazado_4" data-name="Trazado 4" d="M157.94,119.52v-3.21H146.12v17.6h12.37v-3.29h-8.48v-4.15h5.44v-3.21h-5.49v-3.74Z"/>
    <path id="Trazado_5" data-name="Trazado 5" d="M183.04,127.91h-3.88c0,1.89-.48,3.19-2.06,3.19-2.13,0-2.13-1.84-2.13-2.81V121.6a2.531,2.531,0,0,1,.64-1.92,2.29,2.29,0,0,1,1.46-.55c1.92,0,1.97,1.92,1.99,2.79h3.86c-.05-1.42-.24-3.57-1.82-4.82a6.361,6.361,0,0,0-3.86-1.17c-4.1,0-6.26,2.27-6.26,6.3v5.3c0,3.6.93,4.6,1.65,5.3a6.036,6.036,0,0,0,4.55,1.55,6.556,6.556,0,0,0,3.84-1.18,4.916,4.916,0,0,0,1.85-3.14,9.87,9.87,0,0,0,.17-2.15"/>
    <path id="Trazado_6" data-name="Trazado 6" d="M199.68,130.62h-7.74V116.31h-3.93v17.6h11.67Z"/>
    <path id="Trazado_7" data-name="Trazado 7" d="M213.16,127.94c0,3.21-1.73,3.21-2.47,3.21-2.37,0-2.37-2.18-2.37-3.23V116.31h-4.01V127.7a6.517,6.517,0,0,0,1.78,5.2,7.3,7.3,0,0,0,4.82,1.47,6.687,6.687,0,0,0,4.34-1.35c1.8-1.46,1.83-4,1.83-5.06V116.31h-3.91v11.63Z"/>
    <path id="Trazado_8" data-name="Trazado 8" d="M232.1,124.7v-.12c1.36-.31,2.42-1.68,2.42-3.81a4.3,4.3,0,0,0-1.89-3.74,7.893,7.893,0,0,0-3.98-.72h-5.8v17.6h5.68c2.23,0,3.74-.1,5.01-1.39a4.9,4.9,0,0,0,1.37-3.79c-.01-2.59-1.64-3.86-2.81-4.03m-5.49-5.68h1.75c.79,0,2.35,0,2.35,2.13,0,2.23-1,2.33-4.1,2.33Zm1.92,12.11h-1.92v-4.94a13.47,13.47,0,0,1,3.29.21,2.205,2.205,0,0,1,1.13,2.21,2.228,2.228,0,0,1-2.5,2.52"/>
    <path id="Trazado_9" data-name="Trazado 9" d="M79.25,26.94c-14.12,0-14.8,13.79-14.8,14.88V79s-.13,14.06,13.93,12.85,15.28-8.52,15.55-17.04,0-36.51,0-36.51-.55-11.36-14.68-11.36m2.78,15.01V76.7c0,1.22-.41,3.65-3.11,3.65s-2.71-3.65-2.71-3.65V40.55c0-1.21.41-3.65,3.11-3.65s2.71,3.65,2.71,3.65Z"/>
    <path id="Trazado_10" data-name="Trazado 10" d="M21.32,38.43H32.68v64.78s10.55-3.65,11.23-3.65V38.43H56.08V26.94H21.32Z"/>
    <path id="Trazado_11" data-name="Trazado 11" d="M134.91,60.99a31.1,31.1,0,0,0-5.69-6.45c-.75-.7-2.22-1.85-4.49-3.52a27.894,27.894,0,0,1-3.94-3.32c-2.18-2.33-3.31-4.61-3.35-6.8a6.033,6.033,0,0,1,.77-3.35,2.512,2.512,0,0,1,2.33-1.32,2.792,2.792,0,0,1,2.34.78,7.877,7.877,0,0,1,1.84,4.51l.23,1.73,12.28-2.3-.16-1.46a16.97,16.97,0,0,0-2.38-7.14,14,14,0,0,0-5.14-4.92,18.674,18.674,0,0,0-9.46-2.1,16.788,16.788,0,0,0-9.65,2.91c-4.14,3.04-6.19,7.44-6.09,13.1a17.43,17.43,0,0,0,2.44,8.67,34.871,34.871,0,0,0,7.01,7.64c3.69,3.1,6.47,5.42,8.33,6.99,2.01,1.95,3.05,3.9,3.09,5.8a5.114,5.114,0,0,1-.61,2.9,4.059,4.059,0,0,1-3.41,2.06,3.114,3.114,0,0,1-2.48-1.03c-1.25-1.19-2.09-3.27-2.5-6.19l-.21-1.55-12.24,1.04.13,1.6a22.51,22.51,0,0,0,2.35,8.54,15.839,15.839,0,0,0,5.39,6.05,17.413,17.413,0,0,0,10.14,2.62,20.743,20.743,0,0,0,5.66-.81,13.832,13.832,0,0,0,7.17-4.73,16.618,16.618,0,0,0,3.48-11.18,15.862,15.862,0,0,0-1.62-5.96,22.107,22.107,0,0,0-1.56-2.81"/>
    <path id="Trazado_12" data-name="Trazado 12" d="M156.95,27.03H145.46V37.08h11.49V83.33h12.04V37.08h11.63V27.03H156.95Z"/>
    <path id="Trazado_13" data-name="Trazado 13" d="M197.53,27.61,186.44,84c.68,0,12.44.88,12.44.88l2.16-11.97h10.28s2.03,12.85,2.7,12.85,11.09,1.76,11.09,1.76L212.94,27.61H197.53Zm5.13,35.43,3.11-16.5,3.38,16.5Z"/>
    <path id="Trazado_14" data-name="Trazado 14" d="M309.84,81.84V44.11s-.88-16.9-15.35-16.9c0,0-.18,0-.49.01a13.711,13.711,0,0,0-3.87.67c-4.43,1.29-10.66,5.02-10.66,15.82V82.79a32.609,32.609,0,0,0,.99,8.86,14.508,14.508,0,0,0,2.11,5.31,12.889,12.889,0,0,0,11.91,6.79h.05c.16.01.33.01.49.01.35,0,.7-.02,1.04-.04l-.03.04A11.642,11.642,0,0,0,305,100c.02-.02.05-.04.07-.06.04-.04.07-.09.11-.13.13-.15.26-.31.39-.46.08-.1.16-.19.23-.29.12-.16.24-.33.36-.5.07-.1.14-.2.2-.29.11-.18.22-.35.33-.53.06-.1.12-.19.17-.29.11-.19.21-.38.31-.57.05-.09.1-.18.14-.27.1-.21.21-.43.3-.64.03-.07.07-.14.1-.21.25-.58.48-1.16.67-1.73.03-.09.06-.18.09-.28l.18-.57c.04-.12.07-.24.1-.36.05-.16.09-.32.13-.48.03-.13.06-.25.09-.38.04-.15.07-.29.11-.44.03-.13.05-.26.08-.38.03-.14.06-.27.09-.4s.05-.25.07-.38.04-.25.07-.37.04-.25.06-.37.04-.23.05-.34.03-.23.05-.34.03-.21.04-.32a2.907,2.907,0,0,1,.04-.31c.01-.1.02-.2.03-.29s.02-.19.03-.27a2.449,2.449,0,0,0,.02-.27c0-.05.01-.1.01-.15h0c.06-.77.06-1.25.06-1.29.08-1.68.06-3.12.06-4.2m-11.87,8.11a3.32,3.32,0,0,1-6.64,0V41.03a3.32,3.32,0,0,1,6.64,0Z"/>
    <path id="Trazado_15" data-name="Trazado 15" d="M254.46,28.57c-12.98-2.05-19.2-.96-19.2-.96V89.2s14.72,4.29,22.18,1.53a12.313,12.313,0,0,0,1.32-.61,1.508,1.508,0,0,0,.17-.1,15.02,15.02,0,0,0,2.52-1.92c4.51-4.58,4.51-12.04,4.51-12.04V47.05s1.48-16.42-11.5-18.48m-.41,17.66V77.16a3.319,3.319,0,0,1-.07.65c0,4.38-6.96,2.63-6.96,2.63V38.63h.07l-.07-.14s6.96-.66,6.96,6.11l-.02.05a8.742,8.742,0,0,1,.09,1.58"/>
  </g>
</svg>
